<?xml version="1.0" encoding="utf-8"?>
<!-- Generator: Adobe Illustrator 15.1.0, SVG Export Plug-In . SVG Version: 6.00 Build 0)  -->
<!DOCTYPE svg PUBLIC "-//W3C//DTD SVG 1.1//EN" "http://www.w3.org/Graphics/SVG/1.1/DTD/svg11.dtd">
<svg version="1.1" id="Layer_1" xmlns="http://www.w3.org/2000/svg" xmlns:xlink="http://www.w3.org/1999/xlink" x="0px" y="0px"
	 width="425.314px" height="425.314px" viewBox="0 0 425.314 425.314" enable-background="new 0 0 425.314 425.314"
	 xml:space="preserve">
<circle fill="#2F353B" stroke="#2F353B" stroke-miterlimit="10" cx="212.895" cy="212.531" r="212.657"/>
<g>
	<path fill-rule="evenodd" clip-rule="evenodd" fill="#7E827A" d="M195.913,215.39c-2.147,0-10.173,0-20.496,0
		c-0.025,0-0.247,0-0.688,0c-7.062,0-14.123,0-14.123-7.062c0-7.063,7.062-7.063,7.062-21.185c0-14.123-7.062-14.123-14.123-14.123
		s-14.123,0-14.123,14.123c0,14.122,7.062,14.122,7.062,21.185c0,7.062-14.122,7.062-14.122,7.062c-10.656,0-18.991,0-21.186,0
		c-7.062,0-14.123,7.061-14.123,14.123c0,7.062,0,77.677,0,84.738s7.062,14.123,14.123,14.123s77.677,0,84.738,0
		c7.063,0,14.123-7.062,14.123-14.123c0-2.146,0-10.173,0-20.494c0,0,0-11.283-3.53-11.283c-10.593,7.062-10.593,7.062-24.715,7.062
		c-14.124,0-14.124-10.592-14.124-17.653s0-17.653,14.124-17.653c14.122,0,14.122,0,24.715,7.061c3.53,0,3.53-2.841,3.53-9.902
		c0-0.441,0-0.661,0-0.688c0-10.656,0-18.992,0-21.186C210.036,222.45,202.976,215.39,195.913,215.39z"/>
	<path fill-rule="evenodd" clip-rule="evenodd" fill="#E4CEA4" d="M213.567,229.513c0,2.147,0,10.173,0,20.496
		c0,0.025,0,0.247,0,0.688c0,7.062,0,14.123-7.062,14.123c-7.063,0-7.063-7.062-21.185-7.062c-14.124,0-14.124,7.062-14.124,14.123
		s0,14.123,14.124,14.123c14.122,0,14.122-7.062,21.185-7.062c7.062,0,7.062,14.122,7.062,14.122c0,10.656,0,18.991,0,21.186
		c0,7.062,7.061,14.123,14.123,14.123c7.062,0,77.677,0,84.739,0c7.061,0,14.122-7.062,14.122-14.123s0-77.677,0-84.738
		c0-7.063-7.062-14.123-14.122-14.123c-2.147,0-10.174,0-20.495,0c0,0-11.283,0-11.283,3.53c7.062,10.593,7.062,10.593,7.062,24.716
		s-10.592,14.123-17.653,14.123s-17.653,0-17.653-14.123s0-14.123,7.061-24.716c0-3.53-2.841-3.53-9.902-3.53
		c-0.441,0-0.661,0-0.688,0c-10.655,0-18.992,0-21.186,0C220.628,215.39,213.567,222.45,213.567,229.513z"/>
	<path fill="#C77966" stroke="#713131" stroke-miterlimit="10" d="M210.036,197.735c0-2.147,0-10.172,0-20.496
		c0-0.025,0-0.247,0-0.688c0-7.062,0-14.122,7.062-14.122c7.063,0,7.063,7.061,21.185,7.061c14.124,0,14.124-7.061,14.124-14.123
		c0-7.062,0-14.123-14.124-14.123c-14.122,0-14.122,7.062-21.185,7.062c-7.062,0-7.062-14.122-7.062-14.122
		c0-10.656,0-18.991,0-21.186c0-7.062-7.061-14.123-14.123-14.123c-7.062,0-77.677,0-84.738,0s-14.123,7.062-14.123,14.123
		s0,77.677,0,84.738c0,7.063,7.062,14.123,14.123,14.123c2.146,0,10.173,0,20.494,0c0,0,11.283,0,11.283-3.53
		c-7.062-10.593-7.062-10.593-7.062-24.715c0-14.124,10.592-14.124,17.653-14.124s17.653,0,17.653,14.124
		c0,14.122,0,14.122-7.061,24.715c0,3.53,2.841,3.53,9.902,3.53c0.441,0,0.661,0,0.688,0c10.656,0,18.992,0,21.186,0
		C202.976,211.858,210.036,204.798,210.036,197.735z"/>
	<path fill-rule="evenodd" clip-rule="evenodd" fill="#713131" d="M227.69,211.858c2.147,0,10.173,0,20.496,0
		c0.025,0,0.247,0,0.688,0c7.063,0,14.124,0,14.124,7.062c0,7.063-7.062,7.063-7.062,21.185c0,14.124,7.062,14.124,14.123,14.124
		s14.123,0,14.123-14.124c0-14.122-7.062-14.122-7.062-21.185c0-7.062,14.122-7.062,14.122-7.062c10.656,0,18.99,0,21.187,0
		c7.061,0,14.122-7.061,14.122-14.123c0-7.062,0-77.677,0-84.738s-7.062-14.123-14.122-14.123c-7.063,0-77.678,0-84.739,0
		c-7.063,0-14.123,7.062-14.123,14.123c0,2.146,0,10.173,0,20.494c0,0,0,11.283,3.53,11.283c10.593-7.062,10.593-7.062,24.716-7.062
		s14.123,10.592,14.123,17.653c0,7.063,0,17.654-14.123,17.654s-14.123,0-24.716-7.062c-3.53,0-3.53,2.841-3.53,9.902
		c0,0.441,0,0.661,0,0.688c0,10.656,0,18.992,0,21.186C213.567,204.798,220.628,211.858,227.69,211.858z"/>
</g>
</svg>
