<?xml version="1.0" encoding="utf-8"?>
<!-- Generator: Adobe Illustrator 15.1.0, SVG Export Plug-In . SVG Version: 6.00 Build 0)  -->
<!DOCTYPE svg PUBLIC "-//W3C//DTD SVG 1.1//EN" "http://www.w3.org/Graphics/SVG/1.1/DTD/svg11.dtd">
<svg version="1.1" id="Layer_1" xmlns="http://www.w3.org/2000/svg" xmlns:xlink="http://www.w3.org/1999/xlink" x="0px" y="0px"
	 width="425.314px" height="425.314px" viewBox="0 0 425.314 425.314" enable-background="new 0 0 425.314 425.314"
	 xml:space="preserve">
<circle fill="#2F353B" stroke="#2F353B" stroke-miterlimit="10" cx="212.764" cy="212.064" r="212.657"/>
<g>
	<path fill-rule="evenodd" clip-rule="evenodd" fill="#C77966" d="M72.015,217.604c10.346,32.252,35.755,25.374,39.391,28.908
		c3.635,3.534-2.57,7.991,5.645,15.082c5.631,4.859-9.28-7.091,13.084,12.235c22.363,19.326,63.486,10.521,63.486,10.521
		s6.352,16.253,14.461,18.166c8.11,1.913,26.466,44.188,26.466,44.188s0,0,11.525,0s-6.212-26.217-6.212-26.217
		s7.277,3.166,28.847,2.528c45.671-1.351,44.727-34.413,44.727-34.413l0.94,1.844c12.375-1.368,35.425-12.894,36.365-34.101
		c2.553-57.568-34.575-92.2-46.101-115.251c-11.525-23.05-69.151-34.575-80.677-34.575c-5.292,0-45.976-13.37-57.501-1.845
		c-23.05,0-26.46,4.353-57.626,23.051c-46.101,11.524-46.226,69.909-46.226,69.909L72.015,217.604z"/>
	<path fill="#713131" d="M179.897,214.654l-0.072,0.07l32.937,32.938l29.944-29.942l-0.072-0.071
		c0.539-0.447,1.064-0.92,1.568-1.426c9.096-9.096,9.096-23.842,0-32.938c-8.612-8.612-22.29-9.063-31.44-1.365
		c-9.15-7.698-22.826-7.247-31.438,1.365C172.732,191.875,172.26,205.504,179.897,214.654z"/>
	<polyline fill="none" stroke="#F1F2F2" stroke-width="3" stroke-linecap="round" stroke-miterlimit="10" points="74.135,208.401 
		187.146,208.722 195.149,219.927 212.437,156.538 229.725,214.164 241.25,202.639 252.775,208.401 335.692,208.401 	"/>
</g>
</svg>
