<?xml version="1.0" encoding="utf-8"?>
<!-- Generator: Adobe Illustrator 15.1.0, SVG Export Plug-In . SVG Version: 6.00 Build 0)  -->
<!DOCTYPE svg PUBLIC "-//W3C//DTD SVG 1.1//EN" "http://www.w3.org/Graphics/SVG/1.1/DTD/svg11.dtd">
<svg version="1.1" id="Layer_1" xmlns="http://www.w3.org/2000/svg" xmlns:xlink="http://www.w3.org/1999/xlink" x="0px" y="0px"
	 width="425.314px" height="425.314px" viewBox="0 0 425.314 425.314" enable-background="new 0 0 425.314 425.314"
	 xml:space="preserve">
<circle fill="#2F353B" cx="212.395" cy="212.717" r="212.657"/>
<polygon fill-rule="evenodd" clip-rule="evenodd" fill="#C77966" points="331.451,147.018 366.167,228.018 296.737,251.16 
	296.737,320.589 262.023,332.16 238.881,355.303 215.737,332.16 192.595,355.303 169.451,332.16 134.737,320.589 146.309,251.16 
	65.309,228.018 111.595,147.018 88.451,123.874 146.309,100.731 285.167,100.731 354.595,123.874 "/>
<polygon fill-rule="evenodd" clip-rule="evenodd" fill="#713131" points="181.023,343.731 157.881,355.303 146.309,309.018 
	100.023,285.874 100.023,216.446 53.737,170.16 134.737,100.731 123.167,89.16 215.737,66.018 308.309,89.16 296.737,100.731 
	377.737,170.16 331.451,216.446 331.451,285.874 285.167,309.018 273.595,355.303 250.451,343.731 215.737,355.303 "/>
<polygon fill-rule="evenodd" clip-rule="evenodd" fill="#E4CEA4" points="123.167,181.731 157.881,262.731 169.451,320.589 
	215.737,343.731 262.023,320.589 273.595,262.731 308.309,181.731 262.023,135.446 169.451,135.446 "/>
<polygon fill="#2F353B" points="238.881,239.589 250.451,204.874 273.595,204.874 "/>
<polygon fill="#2F353B" points="192.595,239.589 181.023,204.874 157.881,204.874 "/>
<polyline fill="none" stroke="#2F353B" stroke-width="12" stroke-miterlimit="10" points="215.738,285.874 215.738,309.018 
	192.595,320.589 "/>
<line fill="none" stroke="#2F353B" stroke-width="12" stroke-miterlimit="10" x1="238.882" y1="320.589" x2="215.738" y2="309.018"/>
<polygon fill-rule="evenodd" clip-rule="evenodd" fill="#C77966" points="215.737,297.446 192.595,274.303 238.881,274.303 "/>
</svg>
