<?xml version="1.0" encoding="utf-8"?>
<!-- Generator: Adobe Illustrator 15.1.0, SVG Export Plug-In . SVG Version: 6.00 Build 0)  -->
<!DOCTYPE svg PUBLIC "-//W3C//DTD SVG 1.1//EN" "http://www.w3.org/Graphics/SVG/1.1/DTD/svg11.dtd">
<svg version="1.1" id="Layer_1" xmlns="http://www.w3.org/2000/svg" xmlns:xlink="http://www.w3.org/1999/xlink" x="0px" y="0px"
	 width="24px" height="24px" viewBox="0 0 24 24" enable-background="new 0 0 24 24" xml:space="preserve">
<g>
	<defs>
		<path id="SVGID_1_" d="M4,0C2,0,0,2,0,4s0,14,0,16s2,4,4,4s14,0,16,0s4-2,4-4s0-14,0-16s-2-4-4-4S6,0,4,0z"/>
	</defs>
	<clipPath id="SVGID_2_">
		<use xlink:href="#SVGID_1_"  overflow="visible"/>
	</clipPath>
	<path clip-path="url(#SVGID_2_)" fill="#44B29D" d="M4,0C2,0,0,2,0,4s0,14,0,16s2,4,4,4s14,0,16,0s4-2,4-4s0-14,0-16s-2-4-4-4
		S6,0,4,0z"/>
	<path opacity="0.37" clip-path="url(#SVGID_2_)" fill="#204F47" d="M34,28c0.047,0,0.079,0.001,0.124,0.001
		c0,0.045,0.001,0.077,0.001,0.124h0.155c0,0.056,0.001,0.097,0.001,0.156h0.155c0,0.056,0.001,0.097,0.001,0.156h0.155
		c0,0.056,0.001,0.097,0.001,0.156h0.155c0,0.056,0.001,0.097,0.001,0.156h0.155c0,0.056,0.001,0.097,0.001,0.156h0.155
		c0,0.056,0.001,0.097,0.001,0.156h0.155c0,0.056,0.001,0.097,0.001,0.156h0.155c0,0.056,0.001,0.097,0.001,0.156h0.155
		c0,0.056,0.001,0.097,0.001,0.156h0.155c0,0.056,0.001,0.097,0.001,0.156h0.155c0,0.056,0.001,0.097,0.001,0.156h0.155
		C35.999,29.899,36,29.94,36,30h4c0,0,0,0,0-2c0-1.035-0.541-2.063-1.335-2.821c-0.051-0.054-0.103-0.105-0.156-0.156
		c-0.051-0.054-0.103-0.105-0.156-0.156c-0.051-0.054-0.103-0.105-0.156-0.156c-0.051-0.054-0.103-0.105-0.156-0.156
		c-0.051-0.054-0.103-0.105-0.156-0.156c-0.051-0.054-0.103-0.105-0.156-0.156c-0.051-0.054-0.103-0.105-0.156-0.156
		c-0.051-0.054-0.103-0.105-0.156-0.156c-0.051-0.054-0.103-0.105-0.156-0.156c-0.051-0.054-0.103-0.105-0.156-0.156
		c-0.051-0.054-0.103-0.105-0.156-0.156c-0.051-0.054-0.103-0.105-0.156-0.156c-0.051-0.054-0.103-0.105-0.156-0.156
		c-0.051-0.054-0.103-0.105-0.156-0.156c-0.051-0.054-0.103-0.105-0.156-0.156c-0.051-0.054-0.103-0.105-0.156-0.156
		c-0.051-0.054-0.103-0.105-0.156-0.156c-0.051-0.054-0.103-0.105-0.156-0.156c-0.051-0.054-0.103-0.105-0.156-0.156
		c-0.051-0.054-0.103-0.105-0.156-0.156c-0.051-0.054-0.103-0.105-0.156-0.156c-0.051-0.054-0.103-0.105-0.156-0.156
		c-0.051-0.054-0.103-0.105-0.156-0.156c-0.051-0.054-0.103-0.105-0.156-0.156c-0.051-0.054-0.103-0.105-0.156-0.156
		c-0.051-0.054-0.103-0.105-0.156-0.156c-0.051-0.054-0.103-0.105-0.156-0.156c-0.051-0.054-0.103-0.105-0.156-0.156
		c-0.051-0.054-0.103-0.105-0.156-0.156c-0.051-0.054-0.103-0.105-0.156-0.156c-0.051-0.054-0.103-0.105-0.156-0.156
		c-0.051-0.054-0.103-0.105-0.156-0.156c-0.051-0.054-0.103-0.105-0.156-0.156c-0.051-0.054-0.103-0.105-0.156-0.156
		c-0.051-0.054-0.103-0.105-0.156-0.156c-0.051-0.054-0.103-0.105-0.156-0.156c-0.051-0.054-0.103-0.105-0.156-0.156
		c-0.051-0.054-0.103-0.105-0.156-0.156c-0.051-0.054-0.103-0.105-0.156-0.156c-0.051-0.054-0.103-0.105-0.156-0.156
		c-0.051-0.054-0.103-0.105-0.156-0.156c-0.051-0.054-0.103-0.105-0.156-0.156c-0.051-0.054-0.103-0.105-0.156-0.156
		c-0.051-0.054-0.103-0.105-0.156-0.156c-0.051-0.054-0.103-0.105-0.156-0.156c-0.051-0.054-0.103-0.105-0.156-0.156
		c-0.051-0.054-0.103-0.105-0.156-0.156c-0.051-0.054-0.103-0.105-0.156-0.156c-0.051-0.054-0.103-0.105-0.156-0.156
		c-0.051-0.054-0.103-0.105-0.156-0.156c-0.051-0.054-0.103-0.105-0.156-0.156c-0.051-0.054-0.103-0.105-0.156-0.156
		c-0.051-0.054-0.103-0.105-0.156-0.156c-0.051-0.054-0.103-0.105-0.156-0.156c-0.051-0.054-0.103-0.105-0.156-0.156
		c-0.051-0.054-0.103-0.105-0.156-0.156c-0.051-0.054-0.103-0.105-0.156-0.156c-0.051-0.054-0.103-0.105-0.156-0.156
		c-0.051-0.054-0.103-0.105-0.156-0.156c-0.051-0.054-0.103-0.105-0.156-0.156c-0.051-0.054-0.103-0.105-0.156-0.156
		c-0.051-0.054-0.103-0.105-0.156-0.156c-0.051-0.054-0.103-0.105-0.156-0.156c-0.051-0.054-0.103-0.105-0.156-0.156
		c-0.051-0.054-0.103-0.105-0.156-0.156c-0.051-0.054-0.103-0.105-0.156-0.156c-0.051-0.054-0.103-0.105-0.156-0.156
		c-0.051-0.054-0.103-0.105-0.156-0.156c-0.051-0.054-0.103-0.105-0.156-0.156c-0.051-0.054-0.103-0.105-0.156-0.156
		c-0.051-0.054-0.103-0.105-0.156-0.156c-0.051-0.054-0.103-0.105-0.156-0.156c-0.051-0.054-0.103-0.105-0.156-0.156
		c-0.051-0.054-0.103-0.105-0.155-0.156c-0.052-0.054-0.104-0.105-0.156-0.156c-0.052-0.054-0.104-0.105-0.156-0.156
		c-0.052-0.054-0.104-0.105-0.156-0.156c-0.052-0.054-0.104-0.105-0.156-0.156c-0.052-0.054-0.104-0.105-0.156-0.156
		c-0.052-0.054-0.104-0.105-0.156-0.156c-0.052-0.054-0.104-0.105-0.156-0.156c-0.052-0.054-0.104-0.105-0.156-0.156
		c-0.052-0.054-0.104-0.105-0.156-0.156c-0.052-0.054-0.104-0.105-0.156-0.156c-0.052-0.054-0.104-0.105-0.156-0.157
		c-0.052-0.053-0.104-0.105-0.156-0.156c-0.052-0.053-0.104-0.105-0.156-0.156c-0.052-0.053-0.104-0.105-0.156-0.156
		c-0.052-0.053-0.104-0.105-0.156-0.156c-0.052-0.053-0.104-0.105-0.156-0.156c-0.052-0.053-0.104-0.105-0.156-0.156
		c-0.052-0.053-0.104-0.105-0.156-0.156c-0.052-0.053-0.104-0.105-0.156-0.156c-0.052-0.053-0.104-0.105-0.156-0.156
		c-0.052-0.053-0.104-0.105-0.156-0.156c-0.052-0.053-0.104-0.105-0.156-0.156c-0.052-0.053-0.104-0.105-0.156-0.156
		c-0.052-0.053-0.104-0.105-0.156-0.156c-0.052-0.053-0.104-0.105-0.156-0.156c-0.052-0.053-0.104-0.105-0.156-0.156
		c-0.052-0.053-0.104-0.105-0.156-0.156c-0.052-0.053-0.104-0.105-0.156-0.156c-0.052-0.053-0.104-0.105-0.156-0.156
		c-0.052-0.053-0.104-0.105-0.156-0.156c-0.052-0.053-0.104-0.105-0.156-0.156c-0.052-0.053-0.104-0.105-0.156-0.156
		C22.052,8.563,22,8.511,21.947,8.459c-0.052-0.053-0.104-0.105-0.156-0.156c-0.052-0.053-0.104-0.105-0.156-0.156
		c-0.052-0.053-0.104-0.105-0.156-0.156c-0.052-0.053-0.104-0.105-0.156-0.156c-0.052-0.053-0.104-0.105-0.156-0.156
		c-0.052-0.053-0.104-0.105-0.156-0.156c-0.052-0.053-0.104-0.105-0.157-0.156c-0.051-0.053-0.103-0.105-0.156-0.156
		c-0.051-0.053-0.103-0.105-0.156-0.156C20.489,7,20.438,6.948,20.384,6.897c-0.051-0.053-0.103-0.105-0.156-0.156
		c-0.051-0.053-0.103-0.105-0.156-0.156c-0.051-0.053-0.103-0.105-0.156-0.156c-0.051-0.053-0.103-0.105-0.156-0.156
		c-0.051-0.053-0.103-0.105-0.156-0.156c-0.051-0.053-0.103-0.105-0.156-0.156c-0.051-0.053-0.103-0.105-0.156-0.156
		c-0.051-0.053-0.103-0.105-0.156-0.156c-0.051-0.053-0.103-0.105-0.156-0.156c-0.051-0.053-0.103-0.105-0.156-0.156
		C18.064,4.541,17.035,4,16,4c-2,0-6,0-8,0S4,6,4,8s0,6,0,8c0,1.035,0.541,2.063,1.334,2.821c0.051,0.054,0.103,0.105,0.156,0.156
		c0.051,0.054,0.103,0.105,0.156,0.156c0.051,0.054,0.103,0.105,0.156,0.156c0.051,0.054,0.103,0.105,0.156,0.156
		c0.051,0.054,0.103,0.105,0.156,0.156c0.051,0.054,0.103,0.105,0.156,0.156c0.051,0.054,0.103,0.105,0.156,0.156
		c0.051,0.054,0.103,0.105,0.156,0.156c0.051,0.054,0.103,0.105,0.156,0.156c0.051,0.054,0.103,0.105,0.156,0.156
		C6.948,20.438,7,20.489,7.053,20.54c0.051,0.054,0.103,0.105,0.156,0.156c0.051,0.054,0.103,0.105,0.156,0.156
		c0.051,0.054,0.103,0.105,0.156,0.156c0.051,0.054,0.103,0.105,0.156,0.156c0.051,0.054,0.103,0.105,0.156,0.156
		c0.051,0.054,0.103,0.105,0.156,0.156c0.051,0.054,0.103,0.105,0.156,0.156c0.051,0.054,0.103,0.105,0.156,0.156
		c0.051,0.054,0.103,0.105,0.156,0.156C8.511,22,8.563,22.052,8.616,22.103c0.051,0.054,0.103,0.105,0.156,0.156
		c0.051,0.054,0.103,0.105,0.156,0.156c0.051,0.054,0.103,0.105,0.156,0.156c0.051,0.054,0.103,0.105,0.156,0.156
		c0.051,0.054,0.103,0.105,0.156,0.156c0.051,0.054,0.103,0.105,0.156,0.156c0.051,0.054,0.103,0.105,0.156,0.156
		c0.051,0.054,0.103,0.105,0.156,0.156c0.051,0.054,0.103,0.105,0.156,0.156c0.051,0.054,0.103,0.105,0.156,0.156
		c0.051,0.054,0.103,0.105,0.156,0.156c0.051,0.054,0.103,0.105,0.156,0.156c0.051,0.054,0.103,0.105,0.156,0.156
		c0.051,0.054,0.103,0.105,0.156,0.156c0.051,0.054,0.103,0.105,0.156,0.156c0.051,0.054,0.103,0.105,0.156,0.156
		c0.051,0.054,0.103,0.105,0.156,0.156c0.051,0.054,0.103,0.105,0.156,0.156c0.051,0.054,0.103,0.105,0.156,0.156
		c0.051,0.054,0.103,0.105,0.156,0.156c0.051,0.054,0.103,0.105,0.156,0.156c0.051,0.054,0.103,0.105,0.156,0.156
		c0.051,0.054,0.103,0.105,0.156,0.156c0.051,0.054,0.103,0.105,0.156,0.156c0.051,0.054,0.103,0.105,0.156,0.156
		c0.051,0.054,0.103,0.105,0.156,0.156c0.051,0.054,0.103,0.105,0.156,0.156c0.051,0.054,0.103,0.105,0.156,0.156
		c0.051,0.054,0.103,0.105,0.156,0.156c0.051,0.054,0.103,0.105,0.156,0.156c0.051,0.054,0.103,0.105,0.156,0.156
		c0.051,0.054,0.103,0.105,0.156,0.156c0.051,0.054,0.103,0.105,0.156,0.156c0.051,0.054,0.103,0.105,0.156,0.156
		c0.051,0.054,0.103,0.105,0.156,0.156c0.051,0.054,0.103,0.105,0.156,0.156c0.051,0.054,0.103,0.105,0.156,0.156
		c0.051,0.054,0.103,0.105,0.156,0.156c0.051,0.054,0.103,0.105,0.156,0.156c0.051,0.054,0.103,0.105,0.156,0.156
		c0.051,0.054,0.103,0.105,0.156,0.156c0.051,0.054,0.103,0.105,0.156,0.156c0.051,0.054,0.103,0.105,0.156,0.156
		c0.051,0.054,0.103,0.105,0.156,0.156c0.051,0.054,0.103,0.105,0.156,0.156c0.051,0.054,0.103,0.105,0.156,0.156
		c0.051,0.054,0.103,0.105,0.156,0.156c0.051,0.054,0.103,0.105,0.156,0.156c0.051,0.054,0.103,0.105,0.156,0.156
		c0.051,0.054,0.103,0.105,0.156,0.156c0.051,0.054,0.103,0.105,0.156,0.156c0.051,0.054,0.103,0.105,0.156,0.156
		c0.051,0.054,0.103,0.105,0.156,0.156c0.051,0.054,0.103,0.105,0.156,0.156c0.051,0.054,0.103,0.105,0.156,0.156
		c0.051,0.054,0.103,0.105,0.156,0.156c0.051,0.054,0.103,0.105,0.156,0.156c0.051,0.054,0.103,0.105,0.156,0.156
		c0.051,0.054,0.103,0.105,0.156,0.156c0.051,0.054,0.103,0.105,0.156,0.156c0.051,0.054,0.103,0.105,0.156,0.156
		c0.051,0.054,0.103,0.105,0.156,0.156c0.051,0.054,0.103,0.105,0.156,0.156c0.051,0.054,0.103,0.105,0.156,0.156
		c0.051,0.054,0.103,0.105,0.156,0.156c0.051,0.054,0.103,0.105,0.156,0.156c0.051,0.054,0.103,0.105,0.156,0.156
		c0.051,0.054,0.103,0.105,0.156,0.156c0.051,0.054,0.103,0.105,0.156,0.156c0.051,0.054,0.103,0.105,0.156,0.156
		c0.051,0.054,0.103,0.105,0.156,0.156c0.051,0.054,0.103,0.105,0.156,0.156c0.051,0.054,0.103,0.105,0.156,0.156
		c0.051,0.054,0.103,0.105,0.156,0.156c0.051,0.054,0.103,0.105,0.156,0.156c0.051,0.054,0.103,0.105,0.156,0.156
		c0.051,0.054,0.103,0.105,0.156,0.156c0.051,0.054,0.103,0.105,0.156,0.156c0.051,0.054,0.103,0.105,0.156,0.156
		c0.051,0.054,0.103,0.105,0.156,0.156c0.052,0.054,0.104,0.105,0.156,0.156c0.052,0.054,0.104,0.105,0.156,0.156
		c0.052,0.054,0.104,0.105,0.156,0.156c0.052,0.054,0.104,0.105,0.156,0.156c0.052,0.054,0.104,0.105,0.156,0.156
		c0.052,0.054,0.104,0.105,0.156,0.156c0.052,0.054,0.104,0.105,0.156,0.156c0.052,0.054,0.104,0.105,0.156,0.156
		c0.052,0.054,0.104,0.105,0.156,0.156c0.052,0.054,0.104,0.105,0.156,0.156c0.052,0.054,0.104,0.105,0.156,0.156
		c0.052,0.054,0.104,0.105,0.156,0.156c0.052,0.054,0.104,0.105,0.156,0.156c0.052,0.054,0.104,0.105,0.156,0.156
		c0.052,0.054,0.104,0.105,0.156,0.156c0.052,0.054,0.104,0.105,0.156,0.156c0.052,0.054,0.104,0.105,0.156,0.156
		c0.052,0.054,0.104,0.105,0.156,0.156c0.052,0.054,0.104,0.105,0.156,0.156c0.052,0.054,0.104,0.105,0.156,0.156
		c0.052,0.054,0.104,0.105,0.156,0.156c0.052,0.054,0.104,0.105,0.156,0.156c0.052,0.054,0.104,0.105,0.156,0.156
		c0.052,0.054,0.104,0.105,0.156,0.156c0.052,0.054,0.104,0.105,0.156,0.156c0.052,0.054,0.104,0.105,0.156,0.156
		C25.936,39.459,26.965,40,28,40c2,0,12,0,12,0v-6h-0.156v-0.156h-0.156v-0.156h-0.156v-0.156h-0.156v-0.156h-0.156v-0.156h-0.156
		v-0.156h-0.156v-0.156H38.75V32.75h-0.156v-0.156h-0.156v-0.156h-0.156v-0.156h-0.156v-0.156h-0.156v-0.156h-0.156v-0.156h-0.156
		v-0.156H37.5V31.5h-0.156v-0.156h-0.156v-0.156h-0.156v-0.156h-0.156v-0.156h-0.156v-0.156h-0.156v-0.156h-0.156v-0.156H36.25
		V30.25h-0.156v-0.156h-0.156v-0.156h-0.156v-0.156h-0.156v-0.156h-0.156v-0.156h-0.156v-0.156h-0.156v-0.156H35V29h-0.156v-0.156
		h-0.156v-0.156h-0.156v-0.156h-0.156v-0.156h-0.156v-0.156h-0.156v-0.156h-0.156V28C33.94,28,33.965,28,34,28z"/>
	<path clip-path="url(#SVGID_2_)" fill="#E3F1EE" d="M4,16c0-2,0-6,0-8s2-4,4-4s6,0,8,0s4,2,4,4s0,2,0,2h-4c0-2,0-2-2-2s-2,0-4,0
		s-2,0-2,2s0,2,0,4s0,2,2,2s4,0,6,0c0-2,0-2-2-2v-2h6v8c0,0-10,0-12,0S4,18,4,16z"/>
</g>
</svg>
