<?xml version="1.0" encoding="utf-8"?>
<!-- Generator: Adobe Illustrator 15.1.0, SVG Export Plug-In . SVG Version: 6.00 Build 0)  -->
<!DOCTYPE svg PUBLIC "-//W3C//DTD SVG 1.1//EN" "http://www.w3.org/Graphics/SVG/1.1/DTD/svg11.dtd">
<svg version="1.1" id="Layer_1" xmlns="http://www.w3.org/2000/svg" xmlns:xlink="http://www.w3.org/1999/xlink" x="0px" y="0px"
	 width="425.314px" height="425.314px" viewBox="0 0 425.314 425.314" enable-background="new 0 0 425.314 425.314"
	 xml:space="preserve">
<circle fill="#2F353B" stroke="#2F353B" stroke-miterlimit="10" cx="212.752" cy="212.374" r="212.657"/>
<circle fill-rule="evenodd" clip-rule="evenodd" fill="#7E827A" cx="108.095" cy="218.171" r="47.686"/>
<circle fill-rule="evenodd" clip-rule="evenodd" fill="#7E827A" cx="324.095" cy="217.374" r="47.686"/>
<path fill-rule="evenodd" clip-rule="evenodd" fill="#E4CEA4" d="M180.095,345.316v14.4h72v-14.4c0,0-7.2,0-14.4-14.399
	c-7.199-14.4-14.399-216-14.399-216l7.2-14.4l-14.4-28.8l-14.4,28.8l7.2,14.4c0,0-7.2,201.6-14.399,216
	C187.295,345.316,180.095,345.316,180.095,345.316z"/>
<polyline fill="none" stroke="#E4CEA4" stroke-width="4" stroke-miterlimit="10" points="288.095,237.316 324.095,165.316 
	360.095,237.316 "/>
<path fill-rule="evenodd" clip-rule="evenodd" fill="#E4CEA4" d="M201.694,150.917c0,0-14.399-14.4-36-14.4
	c-14.399,0-21.6,21.601-57.6,21.601s-14.4-14.4-14.4-14.4s0,0-7.199-7.2c-14.4,14.4-7.2,28.8,21.6,28.8s50.4-14.399,57.6-14.399
	c7.2,0,21.601,14.399,28.801,14.399c7.199,0,7.199,0,7.199-7.199C201.694,150.917,201.694,150.917,201.694,150.917z"/>
<path fill-rule="evenodd" clip-rule="evenodd" fill="#E4CEA4" d="M230.495,150.917c0,0,14.399-14.4,36-14.4
	c14.399,0,21.6,21.601,57.6,21.601s14.4-14.4,14.4-14.4s0,0,7.199-7.2c14.4,14.4,7.2,28.8-21.6,28.8s-50.4-14.399-57.6-14.399
	c-7.2,0-21.601,14.399-28.801,14.399c-7.199,0-7.199,0-7.199-7.199C230.495,150.917,230.495,150.917,230.495,150.917z"/>
<polyline fill="none" stroke="#E4CEA4" stroke-width="4" stroke-miterlimit="10" points="72.095,237.316 108.095,165.316 
	144.095,237.316 "/>
<path fill="#713131" d="M86.233,223.95l-0.05,0.048l22.627,22.627l20.569-20.569l-0.049-0.049c0.37-0.308,0.73-0.633,1.077-0.979
	c6.249-6.248,6.249-16.378,0-22.627c-5.917-5.917-15.313-6.227-21.598-0.938c-6.287-5.288-15.681-4.979-21.599,0.938
	C81.312,208.302,80.986,217.664,86.233,223.95z"/>
<path fill-rule="evenodd" clip-rule="evenodd" fill="#C77966" d="M298.68,225.383l-0.057,0.055l25.794,25.794l23.358-23.357
	l-0.056-0.057c0.421-0.349,0.83-0.718,1.224-1.111c7.097-7.096,7.074-18.621-0.05-25.745c-6.745-6.745-17.436-7.118-24.575-1.115
	c-7.165-6.03-17.853-5.698-24.573,1.021C293.045,207.567,292.695,218.22,298.68,225.383z"/>
<polygon fill-rule="evenodd" clip-rule="evenodd" fill="#E4CEA4" points="288.095,237.316 360.095,237.316 345.694,251.717 
	302.495,251.717 "/>
<polygon fill-rule="evenodd" clip-rule="evenodd" fill="#E4CEA4" points="72.095,237.316 144.095,237.316 129.694,251.717 
	86.495,251.717 "/>
</svg>
