<?xml version="1.0" encoding="utf-8"?>
<!-- Generator: Adobe Illustrator 15.1.0, SVG Export Plug-In . SVG Version: 6.00 Build 0)  -->
<!DOCTYPE svg PUBLIC "-//W3C//DTD SVG 1.1//EN" "http://www.w3.org/Graphics/SVG/1.1/DTD/svg11.dtd">
<svg version="1.1" id="Layer_1" xmlns="http://www.w3.org/2000/svg" xmlns:xlink="http://www.w3.org/1999/xlink" x="0px" y="0px"
	 width="425.314px" height="425.314px" viewBox="0 0 425.314 425.314" enable-background="new 0 0 425.314 425.314"
	 xml:space="preserve">
<circle fill="#2F353B" stroke="#2F353B" stroke-miterlimit="10" cx="212.657" cy="212.657" r="212.657"/>
<g>
	<path fill-rule="evenodd" clip-rule="evenodd" fill="#7E827A" d="M331.709,190.556c0,0,22.322,44.645,22.322,59.525
		c0,14.882-22.322,29.764-22.322,29.764h22.322l-44.645,29.763c0,0-7.44,7.44-22.322,14.881
		c-14.882,7.441-74.407,7.441-74.407,7.441s-59.525,0-74.407-7.441c-14.882-7.44-22.322-14.881-22.322-14.881l-44.645-22.322
		l22.322-7.44c0,0-14.882-14.882-14.882-29.764c0-14.881,22.322-59.525,22.322-59.525H331.709z"/>
	<g>
		<circle fill="#2F353B" cx="255.647" cy="252.562" r="66.967"/>
		<path fill="#2F353B" d="M233.325,252.562c0,36.984-29.982,66.967-66.967,66.967c-24.272,0-45.53-12.915-57.274-32.247
			c-6.15-10.124-9.692-22.009-9.692-34.72c0-36.984,29.982-66.967,66.967-66.967S233.325,215.577,233.325,252.562z"/>
		<circle fill-rule="evenodd" clip-rule="evenodd" fill="#E4CEA4" cx="153.131" cy="257.522" r="29.763"/>
		<circle fill-rule="evenodd" clip-rule="evenodd" fill="#E4CEA4" cx="272.182" cy="257.522" r="29.763"/>
		<polygon fill-rule="evenodd" clip-rule="evenodd" fill="#E4CEA4" points="190.334,302.167 212.656,279.845 234.979,302.167 
			212.656,346.811 		"/>
		<path fill-rule="evenodd" clip-rule="evenodd" fill="#713131" d="M212.656,260.002c-29.763-59.525-81.847-24.802-111.61-54.565
			C71.283,175.674,130.81,71.504,130.81,71.504l29.763,59.525c0,0,31.416,0,52.085,0s53.738,0,53.738,0l29.764-59.525
			c0,0,65.313,99.21,35.549,128.973C301.945,230.239,242.419,200.477,212.656,260.002z"/>
		<circle fill="#2F353B" cx="153.131" cy="257.522" r="22.322"/>
		<circle fill="#2F353B" cx="272.183" cy="257.522" r="22.322"/>
	</g>
	<path fill-rule="evenodd" clip-rule="evenodd" fill="#C77966" d="M212.657,235.2c-14.882-29.764-66.967-37.204-81.848-52.086
		c-14.882-14.881,14.881-96.729,14.881-96.729c7.441,29.764,52.085,81.849,66.967,81.849s66.967-52.085,66.967-81.849
		c0,0,37.203,74.407,22.322,96.729C287.064,205.437,227.539,205.437,212.657,235.2z"/>
</g>
</svg>
