<?xml version="1.0" encoding="utf-8"?>
<!-- Generator: Adobe Illustrator 15.1.0, SVG Export Plug-In . SVG Version: 6.00 Build 0)  -->
<!DOCTYPE svg PUBLIC "-//W3C//DTD SVG 1.1//EN" "http://www.w3.org/Graphics/SVG/1.1/DTD/svg11.dtd">
<svg version="1.1" id="Layer_1" xmlns="http://www.w3.org/2000/svg" xmlns:xlink="http://www.w3.org/1999/xlink" x="0px" y="0px"
	 width="425.314px" height="425.314px" viewBox="0 0 425.314 425.314" enable-background="new 0 0 425.314 425.314"
	 xml:space="preserve">
<circle fill="#2F353B" cx="211.914" cy="212.325" r="212.657"/>
<path fill-rule="evenodd" clip-rule="evenodd" fill="#E3CDA3" d="M63.056,237.389c20.607,1.028,62.853-17.527,63.88-38.136"/>
<path fill-rule="evenodd" clip-rule="evenodd" fill="#E3CDA3" d="M351.157,204.157c-20.634,0-61.902-20.635-61.902-41.269"/>
<path fill-rule="evenodd" clip-rule="evenodd" fill="none" stroke="#E3CDA3" stroke-width="10" stroke-miterlimit="10" d="
	M108.157,339.157c54,36,162,18,225-27"/>
<path fill-rule="evenodd" clip-rule="evenodd" fill="#E3CDA3" d="M282.929,218.106c-1.08,2.576-1.835,5.337-2.188,8.247
	c-2.062,16.967,10.021,32.396,26.991,34.459c16.97,2.062,32.397-10.024,34.459-26.992c0.354-2.91,0.282-5.771-0.149-8.531
	L282.929,218.106z"/>
<path fill-rule="evenodd" clip-rule="evenodd" fill="#E3CDA3" d="M74.752,248.358c-0.146,2.789,0.078,5.643,0.729,8.502
	c3.796,16.665,20.384,27.102,37.052,23.305c16.667-3.795,27.101-20.386,23.306-37.051c-0.651-2.858-1.686-5.527-3.025-7.979
	L74.752,248.358z"/>
</svg>
